<svg xmlns="http://www.w3.org/2000/svg" height="512" width="512" style=""><rect id="backgroundrect" width="100%" height="100%" x="0" y="0" fill="none" stroke="none"/><g class="currentLayer" style=""><title>Layer 1</title><path d="m413.475313123665,188.23529052734375 h-308.0050440159416 c-9.178751156256796,0 -16.646739466638564,7.46798831038177 -16.646739466638564,16.646739466638564 v78.23420858412624 c0,8.97304280393064 7.137292705999017,16.305628257917764 16.02961507625878,16.62851199239731 v11.048352468236088 c0,5.702543041782975 4.640151399301887,10.34269510768354 10.34269510768354,10.34269510768354 h16.03221881069362 c5.702543708381653,0 10.34269510768354,-4.640152065900565 10.34269510768354,-10.34269510768354 v-11.032728728429676 h235.8040747445798 v11.032728728429676 c0,5.702543041782975 4.637547664867044,10.34269510768354 10.34269510768354,10.34269510768354 h16.02961507625878 c5.702543041782975,0 10.34269510768354,-4.640152065900565 10.34269510768354,-10.34269510768354 v-11.048352468236088 c8.894926104694605,-0.3228837344795467 16.03221881069362,-7.655469188466668 16.03221881069362,-16.62851199239731 v-78.23420858412624 c0,-9.178751156256796 -7.46798831038177,-16.646739466638564 -16.646739466638564,-16.646739466638564 zm-281.9035395447886,122.5578125113982 c0,0.1900846125197411 -0.1536296640372277,0.34371494315564666 -0.34371494315564666,0.34371494315564666 h-16.03221881069362 c-0.1900846125197411,0 -0.34371494315564666,-0.15363033063590534 -0.34371494315564666,-0.34371494315564666 v-11.032728728429676 h16.719648697004914 zm272.17796882748485,0.34371494315564666 h-16.03221881069362 c-0.19008527911841872,0 -0.34371494315564666,-0.15363033063590534 -0.34371494315564666,-0.34371494315564666 v-11.030124993994832 h16.719648697004914 v11.030124993994832 c0,0.1900846125197411 -0.15623406507074836,0.34371494315564666 -0.34371494315564666,0.34371494315564666 zm9.725570717303752,-21.37282010167837 h-308.0050440159416 c-3.6662927269935612,0 -6.647759302110672,-2.9814665751171106 -6.647759302110672,-6.647759302110672 v-4.892730304448604 h294.24082254990935 c2.7627388840180633,0 4.9994900822639465,-2.239354932680726 4.9994900822639465,-4.9994900822639465 c0,-2.7627395506167414 -2.236751198245883,-4.9994900822639465 -4.9994900822639465,-4.9994900822639465 h-294.24082254990935 v-63.34249811514974 c0,-3.6662927269935612 2.9814665751171106,-6.647759302110672 6.647759302110672,-6.647759302110672 h308.00764775037646 c3.6636889925587184,0 6.645155567675829,2.9814665751171106 6.645155567675829,6.647759302110672 v63.34249811514974 h-5.686919968575239 c-2.7627388840180633,0 -4.9994900822639465,2.2367505316472056 -4.9994900822639465,4.9994900822639465 c0,2.7601351495832205 2.236751198245883,4.9994900822639465 4.9994900822639465,4.9994900822639465 h5.686919968575239 v4.892730304448604 c0,3.6662927269935612 -2.9814665751171106,6.647759302110672 -6.647759302110672,6.647759302110672 zm0,0 " id="svg_1" class="" fill="#ffffff" fill-opacity="1"/><path d="m327.0179852479477,225.7965635047865 c-2.6716028460091352,0.6900336207461357 -4.2834171173733475,3.4137144884455206 -3.5933834966272116,6.087921068889499 c0.34111120872080336,1.330592954236865 0.5155727480328082,2.7106608623278143 0.5155727480328082,4.098539973723293 c0,9.030328961089253 -7.348209193793536,16.375933753849267 -16.375934420447948,16.375933753849267 s-16.373330019414425,-7.345604792760015 -16.373330019414425,-16.375933753849267 c0,-9.027724560055733 7.345604792760015,-16.373330019414425 16.373330019414425,-16.373330019414425 c1.390483512428999,0 2.7705507539212704,0.171857804877162 4.0985406403219695,0.5155727480328082 c2.671602179410458,0.6874298863112928 5.400490515979528,-0.921781317216754 6.087920402290821,-3.595987897660732 c0.6874298863112928,-2.6742059138453014 -0.9217806506180768,-5.400490515979528 -3.5959872310620544,-6.087920402290821 c-2.143010759203434,-0.5520270299166441 -4.36153448320806,-0.8306446126091483 -6.590473811550736,-0.8306446126091483 c-14.542787390352489,0 -26.372310183942318,11.82952279358983 -26.372310183942318,26.372310183942318 s11.82952279358983,26.372310183942318 26.372310183942318,26.372310183942318 c14.542788056951167,0 26.374914584975837,-11.82952279358983 26.374914584975837,-26.372310183942318 c0,-2.2315430627775195 -0.2812219837260248,-4.447463052347302 -0.8332483470439912,-6.590473144952059 c-0.6874298863112928,-2.6742065804439785 -3.4137144884455206,-4.283417783972025 -6.087921068889499,-3.595987897660732 zm0,0 " id="svg_2" class="" fill="#ffffff" fill-opacity="1"/><path d="m259.12907617253853,221.11735342256725 v-1.1639439514267447 c0,-2.7627388840180633 -2.239354932680726,-4.9994900822639465 -4.9994900822639465,-4.9994900822639465 s-4.9994900822639465,2.236751198245883 -4.9994900822639465,4.9994900822639465 v1.1639439514267447 c-6.20509645104289,2.0935364719480276 -10.686410050839186,7.9653335841733215 -10.686410050839186,14.865671124832035 c0,8.65015973604977 7.0357403970533605,15.685900133103132 15.685900133103132,15.685900133103132 s15.685900133103132,-7.0357403970533605 15.685900133103132,-15.685900133103132 c0,-6.900337540658712 -4.481313599796295,-12.772134652884008 -10.686410050839186,-14.865671124832035 zm-4.9994900822639465,20.552591093407273 c-3.1377006401878593,0 -5.686919968575239,-2.5492186617887023 -5.686919968575239,-5.686919968575239 c0,-3.1350969057530165 2.5518230628222227,-5.686919968575239 5.686919968575239,-5.686919968575239 s5.686919968575239,2.5518230628222227 5.686919968575239,5.686919968575239 c0,3.137701306786537 -2.5518230628222227,5.686919968575239 -5.686919968575239,5.686919968575239 zm0,0 " id="svg_3" class="" fill="#ffffff" fill-opacity="1"/><path d="m168.63309754809273,220.29712441429615 c-8.650159069451094,0 -15.685900133103132,7.035741063652039 -15.685900133103132,15.685900133103132 c0,6.902941941692233 4.481314266394973,12.772134652884008 10.686410050839186,14.865671791430714 v1.1665476858615875 c0,2.760134482984543 2.2393555992794036,4.9994900822639465 4.9994900822639465,4.9994900822639465 c2.760135816181898,0 4.9994900822639465,-2.2393555992794036 4.9994900822639465,-4.9994900822639465 v-1.1665476858615875 c6.20509645104289,-2.093537138546705 10.686410050839186,-7.962729849738479 10.686410050839186,-14.865671791430714 c0,-8.650159069451094 -7.0357403970533605,-15.685900133103132 -15.685900133103132,-15.685900133103132 zm0,21.37282010167837 c-3.1377006401878593,0 -5.686919968575239,-2.5492186617887023 -5.686919968575239,-5.686919968575239 c0,-3.1350969057530165 2.5518237294209003,-5.686919968575239 5.686919968575239,-5.686919968575239 c3.135097572351694,0 5.686919968575239,2.5518230628222227 5.686919968575239,5.686919968575239 c0,3.137701306786537 -2.551822396223545,5.686919968575239 -5.686919968575239,5.686919968575239 zm0,0 " id="svg_4" class="" fill="#ffffff" fill-opacity="1"/><path d="m125.88485361030114,209.61071436345696 c-8.650159069451094,0 -15.685900133103132,7.035741063652039 -15.685900133103132,15.685900133103132 v21.37282010167837 c0,8.65015973604977 7.035741063652039,15.685900133103132 15.685900133103132,15.685900133103132 c8.647555335016252,0 15.685900133103132,-7.0357403970533605 15.685900133103132,-15.685900133103132 v-21.37282010167837 c0,-8.650159069451094 -7.038344798086881,-15.685900133103132 -15.685900133103132,-15.685900133103132 zm0,9.998980164527893 c3.1350969057530165,0 5.686919968575239,2.5518230628222227 5.686919968575239,5.686919968575239 v5.686919968575239 h-11.376443671585323 v-5.686919968575239 c0,-3.1350969057530165 2.5518230628222227,-5.686919968575239 5.6895237030100825,-5.686919968575239 zm0,32.74926377326369 c-3.1377006401878593,0 -5.686919968575239,-2.551822396223545 -5.686919968575239,-5.6895237030100825 v-5.686919968575239 h11.373839937150478 v5.686919968575239 c0,3.137701306786537 -2.5518230628222227,5.6895237030100825 -5.686919968575239,5.6895237030100825 zm0,0 " id="svg_5" class="" fill="#ffffff" fill-opacity="1"/><path d="m226.25222074618472,221.11214528709888 c-1.9529254800850153,-1.9529254800850153 -5.119269198852182,-1.9503217456501727 -7.0695909445023535,0 l-0.8202290082710982,0.8202290082710982 c-2.143010759203434,-1.0675991113507748 -4.517768548278808,-1.6352498810738327 -6.981058640928269,-1.6352498810738327 c-4.189677344929576,0 -8.129379519147276,1.6326461466389899 -11.092618620023131,4.593281513080001 c-2.9632397674745325,2.9632397674745325 -4.595885914113522,6.902941941692233 -4.595885914113522,11.092618620023131 s1.6326461466389899,8.129379519147276 4.595885914113522,11.092618620023131 c2.963239100875855,2.9632397674745325 6.902941275093555,4.593281513080001 11.092618620023131,4.593281513080001 c4.1896766783308985,0 8.1293788525486,-1.6300417456054688 11.092618620023131,-4.593281513080001 c4.877106564642191,-4.8797102990770345 5.850965903549194,-12.194068945421575 2.9476160276681185,-18.060657922178507 l0.8306439460104706,-0.8306439460104706 c1.9529261466836931,-1.9529261466836931 1.95032241224885,-5.1192698654508595 0,-7.072196012134551 zm-10.850455319214461,18.893906269222498 c-1.0728072468191385,1.0728079134178163 -2.5023494421654937,1.6638929596531395 -4.020423274487257,1.6638929596531395 c-1.5206782333552837,0 -2.9476160276681185,-0.5910850462353232 -4.023027675520778,-1.6638929596531395 c-1.072806580220461,-1.0754109812539818 -1.6638922930544617,-2.5023487755668166 -1.6638922930544617,-4.0230270089221 c0,-1.5180744989204409 0.5910857128340009,-2.9450116266345985 1.6638922930544617,-4.020423274487257 c1.0754116478526592,-1.0754109812539818 2.5023494421654937,-1.6664966940879822 4.023027675520778,-1.6664966940879822 c1.518073832321763,0 2.9450122932332756,0.5910857128340009 4.020423274487257,1.6664966940879822 h0.0026037344348430655 c2.2159199895697834,2.2185237240046263 2.2159199895697834,5.8249272260034095 -0.0026037344348430655,8.043450283409358 zm0,0 " id="svg_6" class="" fill="#ffffff" fill-opacity="1"/><path d="m403.74974240636124,220.29712441429615 h-53.43725772306561 c-2.760135816181898,0 -4.9994900822639465,2.236751198245883 -4.9994900822639465,4.9994900822639465 c0,2.7601351495832205 2.2393542660820485,4.9994900822639465 4.9994900822639465,4.9994900822639465 h53.43725772306561 c2.7601351495832205,0 4.9994900822639465,-2.239354932680726 4.9994900822639465,-4.9994900822639465 c0,-2.7627388840180633 -2.239354932680726,-4.9994900822639465 -4.9994900822639465,-4.9994900822639465 zm0,0 " id="svg_7" class="" fill="#ffffff" fill-opacity="1"/><path d="m355.65568904211653,241.66994451597452 h-5.343204358820916 c-2.760135816181898,0 -4.9994900822639465,2.239354932680726 -4.9994900822639465,4.9994900822639465 c0,2.7627395506167414 2.2393542660820485,4.9994900822639465 4.9994900822639465,4.9994900822639465 h5.343204358820916 c2.7627395506167414,0 4.9994900822639465,-2.2367505316472056 4.9994900822639465,-4.9994900822639465 c0,-2.7601351495832205 -2.2367505316472056,-4.9994900822639465 -4.9994900822639465,-4.9994900822639465 zm0,0 " id="svg_8" class="" fill="#ffffff" fill-opacity="1"/><path d="m379.70271572423883,241.66994451597452 h-5.343205025419593 c-2.7627388840180633,0 -4.9994900822639465,2.239354932680726 -4.9994900822639465,4.9994900822639465 c0,2.7627395506167414 2.236751198245883,4.9994900822639465 4.9994900822639465,4.9994900822639465 h5.343205025419593 c2.7601351495832205,0 4.9994900822639465,-2.2367505316472056 4.9994900822639465,-4.9994900822639465 c0,-2.7601351495832205 -2.239354932680726,-4.9994900822639465 -4.9994900822639465,-4.9994900822639465 zm0,0 " id="svg_9" class="" fill="#ffffff" fill-opacity="1"/><path d="m403.74974240636124,241.66994451597452 h-5.343205025419593 c-2.7627388840180633,0 -4.9994900822639465,2.239354932680726 -4.9994900822639465,4.9994900822639465 c0,2.7627395506167414 2.236751198245883,4.9994900822639465 4.9994900822639465,4.9994900822639465 h5.343205025419593 c2.7601351495832205,0 4.9994900822639465,-2.2367505316472056 4.9994900822639465,-4.9994900822639465 c0,-2.7601351495832205 -2.239354932680726,-4.9994900822639465 -4.9994900822639465,-4.9994900822639465 zm0,0 " id="svg_10" class="" fill="#ffffff" fill-opacity="1"/></g></svg>